# xmcd
#
# Track frame offsets: 
#        150
#        22275
#        49050
#        71943
#        93542
#        109366
#        131781
#        148132
#
# Disc length: 2705 seconds
#
# Revision: 0
# Processed by: cddbd v1.5.2PL0 Copyright (c) Steve Scherf et al.
# Submitted via: ExactAudioCopy v1.0b3
#
DISCID=840a8f08
DTITLE=Jan Gałach - Jan Gałach and Friends
DYEAR=2013
DGENRE=Blues
TTITLE0=Angol
TTITLE1=Devil
TTITLE2=Połamaniec
TTITLE3=Trójkącik
TTITLE4=Kantrowiec
TTITLE5=Pitu Pitu
TTITLE6=Rock'n'Roll i Ch...
TTITLE7=Afro Blue
EXTD=
EXTT0=
EXTT1=
EXTT2=
EXTT3=
EXTT4=
EXTT5=
EXTT6=
EXTT7=
PLAYORDER=
